<svg width="51" height="73" viewBox="0 0 51 73" fill="none" xmlns="http://www.w3.org/2000/svg">
<path d="M25.5156 0.458008C32.2744 0.458008 38.7569 3.15136 43.5361 7.94434C48.3151 12.7373 50.9999 19.2384 51 26.0166C51 31.2139 49.1249 37.0818 46.3936 42.875C46.3559 42.9548 46.3126 43.03 46.2666 43.1016L45.0205 45.7305C44.3329 47.1807 41.8441 47.6445 40.4717 46.8125C40.0133 46.5346 39.58 46.2763 39.2344 46.0449C35.2496 42.5464 37.2961 41.5179 36.0859 38.2891C35.0124 35.4252 30.1163 32.0042 26.6738 29.9834C25.7026 29.4131 25.3334 28.1711 25.8838 27.1885L28.2148 23.0303C28.8466 21.903 30.3655 21.6611 31.3154 22.5371L42.8701 33.1943C42.9358 33.255 42.9959 33.321 43.0527 33.3896C44.0124 31.1213 44.5449 28.6278 44.5449 26.0098C44.5445 15.5378 36.055 7.0481 25.583 7.04785C15.1108 7.04785 6.6205 15.5376 6.62012 26.0098C6.62012 29.2403 7.42866 32.2822 8.85352 34.9443C8.81116 34.5027 8.91602 34.0507 9.16602 33.665L16.2344 22.7607C16.9896 21.5956 18.6726 21.5353 19.5088 22.6436L27.166 32.7969C27.9031 33.5598 29.6057 35.2687 30.5205 36.001C31.6641 36.9165 33.0364 39.3576 30.3682 45.3838C27.6999 51.4101 29.3991 53.9825 30.8291 55.8652C31.2468 56.4151 32.4427 57.7636 33.7412 58.8555C34.7696 59.7202 35.197 61.3933 34.3955 62.4717L32.3086 65.2793L30.3779 67.667C30.3576 67.6921 30.3356 67.7155 30.3145 67.7393C28.9616 69.4374 27.809 70.8229 26.9717 71.8066C26.2021 72.7108 24.8423 72.7251 24.0723 71.8213C18.6802 65.4914 0.031328 42.4141 0.03125 26.0166C0.0313824 19.2384 2.7162 12.7373 7.49512 7.94434C12.2743 3.15138 18.7569 0.458025 25.5156 0.458008Z" fill="#42643D"/>
</svg>
